<svg xmlns="http://www.w3.org/2000/svg" viewBox="0 0 200 200">
  <rect width="200" height="200" fill="#000000"/>
  <path d="M50,150 L50,40 L110,40 C140,40 160,60 160,85 C160,110 140,130 110,130 L80,130 L80,150 Z" fill="#F0EAD6"/>
  <!-- Cat profile cutout -->
  <path d="M50,60 C70,60 80,50 85,30 C90,45 100,55 115,60 C105,70 110,95 125,100 C105,105 85,95 85,95 C75,105 60,110 50,110 Z" fill="#000000"/>
  <!-- Cat eye cutout -->
  <path d="M95,75 Q105,70 110,75 Q105,80 95,75 Z" fill="#F0EAD6"/>
</svg>
